<mxfile host="app.diagrams.net" modified="2022-05-09T19:21:56.741Z" agent="5.0 (Windows NT 10.0; Win64; x64) AppleWebKit/537.36 (KHTML, like Gecko) Chrome/101.0.4951.54 Safari/537.36" etag="Atvbf_RqAv3C_H7a7QRR" version="17.5.1" type="github">
  <diagram id="oLaPyGhRJc3gk7JPylx6" name="Page-1">
    <mxGraphModel dx="1422" dy="762" grid="1" gridSize="10" guides="1" tooltips="1" connect="1" arrows="1" fold="1" page="1" pageScale="1" pageWidth="827" pageHeight="1169" math="0" shadow="0">
      <root>
        <mxCell id="0" />
        <mxCell id="1" parent="0" />
        <mxCell id="mXlHm4GdsC3o7XOTkbqg-4" value="Stakeholders" style="shape=image;verticalLabelPosition=bottom;verticalAlign=top;imageAspect=0;aspect=fixed;image=data:image/png,iVBORw0KGgoAAAANSUhEUgAAADAAAAAwCAYAAABXAvmHAAAF+klEQVRoge2YS2yU1xXHf+d+47cN+IEbO8aYmEex4kd4GLduiR2UEiCYGFMKebRUldqqm2ZTVVU3XlWtskoXrarSpIvQoEHFxk7kKJGDIUEEFcorgG1KTDDYxg+cGePnfPOdLsaDBxgMDsHDYn6bT989Z+79n+/eOTr3QJQoUaJEeQhkOuO6f1UVOZazzYFygSzgiW9mUT2ryHyEflE9ro40VLStOlxbW+vMfK4wfN+9Yb5LzZuK7Aj6CDgK5iG1A6DCSVGeuWO4A+UPFa2r3ppJIHcFUPHuS3kY+wNgGUBa0twrJXmF3QvmZdmxMXF+HNHpJhzzj7keYFEZtcesnsG+of9d/yKz29NbGKLlkBUTU9O8tW5gxgGs21+d7vf5PgMWuyzXze2lW84VZC9ZEWPFxDzIZF+X/uEbJ5tONY98fq21HEChPdYxlR/tbOgK51/h3liijvmNETlw25Gwfb63gMUuY4396rmfXipeULDmUYsHyEhKe+bV8m3lr5TVNBtjRgSWThinruLtiviwP1BrhwgvO6K/vxXAs+6q5wWqAH64ZsvpJ1OfKH7UwkMRhKLcgnW/qHjtc0FsgVJJTP5LeG+tARClbmoH1HkdYNH8ha3FOQVrZkFzWPIycktrVm/+FEBhV6V787Oh9rXujYXAYgDLb/YbgAp31WKBDQAbCivHRabNro+cVXlFa/Mycs8BoqpvolP/VaNmKwT+J80vN5wJ7IA6PwEkNXFub05admFEVIcgIualFS8Es11xpXvTD0LM1ZPPepjK6y8ClOWvvGQZ6xvJ9Q9L1rxvPb0oI/csgCPm5wDP7d2QDxQDiEodgFnvXp8WHHwqc1FyZOSGp/Lb3x0CEEdXlh+oSvEba+ukqbPlR43HAMyExpQR2DVfesrc/EiJDUdOevZSy6IdYWHsqP950cnjoxxAUACjQhFA5pzUL5NikxIjqPcukuKSMvIznhoBUMOPgTIAYwLHB8CosgTgydTswYiovA+r80s8AKisJ1A59KUTfyhoNyIsBJifnDEaEYX3IS89d4kgfiAeQKFx3/Z9/qDdAGkAcxJSHovscydzElKys9Iy24LvwewTxKDMA4izYmdb2wNTkL00UF4LGps6fjDU9lh+9Tu50t8VCEARnyduVajNKAwCjPvHpq3zI8XwxIjnUu/lZcF3dbQ61G4Q+gEGhz2PZQBXb3S1+R1/HIgPAKHmttpIlIsAXd7elAhpnJb/Xj4rAKrOp5NDORV7N64M2g0SCODaQHe66uO1CSPjIzfPXbuwDECM2QNcAFBj3TpGRtQcB/CMenM9o96+iCi9B+29Had8fltV+dByuepR3R+w6Lagj9FM7zEFL0DPYF9HZKTezZg9PvrBmeYckLki0t28tW5ADHUAAkvX7t20HMC0VLbYIhwBOPHlycjeZEI4cfn00cFhTx5gY/FHgIPb3z8BdAAYE7jYGABB3gE413VxhXdkqCcykqe4MeL5oul0c+nk6+6WbY2tQZug9QBoIJ0agPhk+98KvX7Hbx27dPz8bAsOZcKe8P7z8J6bPr+dDFwl1vW7ULvjECwlVq51b15kAJo2No0b+BtAS/tn3/EMey/OruwAtmOP7/tPQ+t170ARoEblZy3V9V+F+lS2rT4C0g1gHGfLrVJiIt68AVy1/XbCPw6/Y4/5xr2zKd7nt4fcx+pPnem8UAqgwm8/3tH44Z1+gbaj0xDwMdW3AjiypWFIHHYB9vWhgeV/bX67c3DY0z4b4nuH+s/8+aPdnac7L0y2c+RPh7a/98a9/FXNAaBH0PN390bdm3eh+nfAZRlrrGRBwdHihU8nJ8bFuwRRdKo3mhCXYN+nwR1egKOiolaft9/3SdtRp6PvStlk49gWlV8f3NF4j4ZWgNraWjP5dMKuXvnui+vU6G6QvNB1+TpqwwUgnBKl5LYx9DwOvzy08/1PZjJX2HL64M73mhkZXo7wOugRBUfA9zCiQxEleKMaRGgSkVduftVTMlPxMIMv+r09m1JnOvn9yIpJ9IZeD6NEiRIlyqzzf+MoMdYtLxrJAAAAAElFTkSuQmCC;imageBackground=none;" parent="1" vertex="1">
          <mxGeometry x="470" y="142" width="48" height="48" as="geometry" />
        </mxCell>
        <mxCell id="mXlHm4GdsC3o7XOTkbqg-9" value="Problem" style="shape=image;verticalLabelPosition=bottom;verticalAlign=top;imageAspect=0;aspect=fixed;image=data:image/png,iVBORw0KGgoAAAANSUhEUgAAADAAAAAwCAYAAABXAvmHAAAF+klEQVRoge2YS2yU1xXHf+d+47cN+IEbO8aYmEex4kd4GLduiR2UEiCYGFMKebRUldqqm2ZTVVU3XlWtskoXrarSpIvQoEHFxk7kKJGDIUEEFcorgG1KTDDYxg+cGePnfPOdLsaDBxgMDsHDYn6bT989Z+79n+/eOTr3QJQoUaJEeQhkOuO6f1UVOZazzYFygSzgiW9mUT2ryHyEflE9ro40VLStOlxbW+vMfK4wfN+9Yb5LzZuK7Aj6CDgK5iG1A6DCSVGeuWO4A+UPFa2r3ppJIHcFUPHuS3kY+wNgGUBa0twrJXmF3QvmZdmxMXF+HNHpJhzzj7keYFEZtcesnsG+of9d/yKz29NbGKLlkBUTU9O8tW5gxgGs21+d7vf5PgMWuyzXze2lW84VZC9ZEWPFxDzIZF+X/uEbJ5tONY98fq21HEChPdYxlR/tbOgK51/h3liijvmNETlw25Gwfb63gMUuY4396rmfXipeULDmUYsHyEhKe+bV8m3lr5TVNBtjRgSWThinruLtiviwP1BrhwgvO6K/vxXAs+6q5wWqAH64ZsvpJ1OfKH7UwkMRhKLcgnW/qHjtc0FsgVJJTP5LeG+tARClbmoH1HkdYNH8ha3FOQVrZkFzWPIycktrVm/+FEBhV6V787Oh9rXujYXAYgDLb/YbgAp31WKBDQAbCivHRabNro+cVXlFa/Mycs8BoqpvolP/VaNmKwT+J80vN5wJ7IA6PwEkNXFub05admFEVIcgIualFS8Es11xpXvTD0LM1ZPPepjK6y8ClOWvvGQZ6xvJ9Q9L1rxvPb0oI/csgCPm5wDP7d2QDxQDiEodgFnvXp8WHHwqc1FyZOSGp/Lb3x0CEEdXlh+oSvEba+ukqbPlR43HAMyExpQR2DVfesrc/EiJDUdOevZSy6IdYWHsqP950cnjoxxAUACjQhFA5pzUL5NikxIjqPcukuKSMvIznhoBUMOPgTIAYwLHB8CosgTgydTswYiovA+r80s8AKisJ1A59KUTfyhoNyIsBJifnDEaEYX3IS89d4kgfiAeQKFx3/Z9/qDdAGkAcxJSHovscydzElKys9Iy24LvwewTxKDMA4izYmdb2wNTkL00UF4LGps6fjDU9lh+9Tu50t8VCEARnyduVajNKAwCjPvHpq3zI8XwxIjnUu/lZcF3dbQ61G4Q+gEGhz2PZQBXb3S1+R1/HIgPAKHmttpIlIsAXd7elAhpnJb/Xj4rAKrOp5NDORV7N64M2g0SCODaQHe66uO1CSPjIzfPXbuwDECM2QNcAFBj3TpGRtQcB/CMenM9o96+iCi9B+29Had8fltV+dByuepR3R+w6Lagj9FM7zEFL0DPYF9HZKTezZg9PvrBmeYckLki0t28tW5ADHUAAkvX7t20HMC0VLbYIhwBOPHlycjeZEI4cfn00cFhTx5gY/FHgIPb3z8BdAAYE7jYGABB3gE413VxhXdkqCcykqe4MeL5oul0c+nk6+6WbY2tQZug9QBoIJ0agPhk+98KvX7Hbx27dPz8bAsOZcKe8P7z8J6bPr+dDFwl1vW7ULvjECwlVq51b15kAJo2No0b+BtAS/tn3/EMey/OruwAtmOP7/tPQ+t170ARoEblZy3V9V+F+lS2rT4C0g1gHGfLrVJiIt68AVy1/XbCPw6/Y4/5xr2zKd7nt4fcx+pPnem8UAqgwm8/3tH44Z1+gbaj0xDwMdW3AjiypWFIHHYB9vWhgeV/bX67c3DY0z4b4nuH+s/8+aPdnac7L0y2c+RPh7a/98a9/FXNAaBH0PN390bdm3eh+nfAZRlrrGRBwdHihU8nJ8bFuwRRdKo3mhCXYN+nwR1egKOiolaft9/3SdtRp6PvStlk49gWlV8f3NF4j4ZWgNraWjP5dMKuXvnui+vU6G6QvNB1+TpqwwUgnBKl5LYx9DwOvzy08/1PZjJX2HL64M73mhkZXo7wOugRBUfA9zCiQxEleKMaRGgSkVduftVTMlPxMIMv+r09m1JnOvn9yIpJ9IZeD6NEiRIlyqzzf+MoMdYtLxrJAAAAAElFTkSuQmCC" parent="1" vertex="1">
          <mxGeometry x="130" y="142" width="48" height="48" as="geometry" />
        </mxCell>
        <mxCell id="S913CENb46srhOgsQ4nY-19" value="Target System" style="shape=image;verticalLabelPosition=bottom;verticalAlign=top;imageAspect=0;aspect=fixed;image=data:image/png,iVBORw0KGgoAAAANSUhEUgAAADAAAAAwCAYAAABXAvmHAAAF+klEQVRoge2YS2yU1xXHf+d+47cN+IEbO8aYmEex4kd4GLduiR2UEiCYGFMKebRUldqqm2ZTVVU3XlWtskoXrarSpIvQoEHFxk7kKJGDIUEEFcorgG1KTDDYxg+cGePnfPOdLsaDBxgMDsHDYn6bT989Z+79n+/eOTr3QJQoUaJEeQhkOuO6f1UVOZazzYFygSzgiW9mUT2ryHyEflE9ro40VLStOlxbW+vMfK4wfN+9Yb5LzZuK7Aj6CDgK5iG1A6DCSVGeuWO4A+UPFa2r3ppJIHcFUPHuS3kY+wNgGUBa0twrJXmF3QvmZdmxMXF+HNHpJhzzj7keYFEZtcesnsG+of9d/yKz29NbGKLlkBUTU9O8tW5gxgGs21+d7vf5PgMWuyzXze2lW84VZC9ZEWPFxDzIZF+X/uEbJ5tONY98fq21HEChPdYxlR/tbOgK51/h3liijvmNETlw25Gwfb63gMUuY4396rmfXipeULDmUYsHyEhKe+bV8m3lr5TVNBtjRgSWThinruLtiviwP1BrhwgvO6K/vxXAs+6q5wWqAH64ZsvpJ1OfKH7UwkMRhKLcgnW/qHjtc0FsgVJJTP5LeG+tARClbmoH1HkdYNH8ha3FOQVrZkFzWPIycktrVm/+FEBhV6V787Oh9rXujYXAYgDLb/YbgAp31WKBDQAbCivHRabNro+cVXlFa/Mycs8BoqpvolP/VaNmKwT+J80vN5wJ7IA6PwEkNXFub05admFEVIcgIualFS8Es11xpXvTD0LM1ZPPepjK6y8ClOWvvGQZ6xvJ9Q9L1rxvPb0oI/csgCPm5wDP7d2QDxQDiEodgFnvXp8WHHwqc1FyZOSGp/Lb3x0CEEdXlh+oSvEba+ukqbPlR43HAMyExpQR2DVfesrc/EiJDUdOevZSy6IdYWHsqP950cnjoxxAUACjQhFA5pzUL5NikxIjqPcukuKSMvIznhoBUMOPgTIAYwLHB8CosgTgydTswYiovA+r80s8AKisJ1A59KUTfyhoNyIsBJifnDEaEYX3IS89d4kgfiAeQKFx3/Z9/qDdAGkAcxJSHovscydzElKys9Iy24LvwewTxKDMA4izYmdb2wNTkL00UF4LGps6fjDU9lh+9Tu50t8VCEARnyduVajNKAwCjPvHpq3zI8XwxIjnUu/lZcF3dbQ61G4Q+gEGhz2PZQBXb3S1+R1/HIgPAKHmttpIlIsAXd7elAhpnJb/Xj4rAKrOp5NDORV7N64M2g0SCODaQHe66uO1CSPjIzfPXbuwDECM2QNcAFBj3TpGRtQcB/CMenM9o96+iCi9B+29Had8fltV+dByuepR3R+w6Lagj9FM7zEFL0DPYF9HZKTezZg9PvrBmeYckLki0t28tW5ADHUAAkvX7t20HMC0VLbYIhwBOPHlycjeZEI4cfn00cFhTx5gY/FHgIPb3z8BdAAYE7jYGABB3gE413VxhXdkqCcykqe4MeL5oul0c+nk6+6WbY2tQZug9QBoIJ0agPhk+98KvX7Hbx27dPz8bAsOZcKe8P7z8J6bPr+dDFwl1vW7ULvjECwlVq51b15kAJo2No0b+BtAS/tn3/EMey/OruwAtmOP7/tPQ+t170ARoEblZy3V9V+F+lS2rT4C0g1gHGfLrVJiIt68AVy1/XbCPw6/Y4/5xr2zKd7nt4fcx+pPnem8UAqgwm8/3tH44Z1+gbaj0xDwMdW3AjiypWFIHHYB9vWhgeV/bX67c3DY0z4b4nuH+s/8+aPdnac7L0y2c+RPh7a/98a9/FXNAaBH0PN390bdm3eh+nfAZRlrrGRBwdHihU8nJ8bFuwRRdKo3mhCXYN+nwR1egKOiolaft9/3SdtRp6PvStlk49gWlV8f3NF4j4ZWgNraWjP5dMKuXvnui+vU6G6QvNB1+TpqwwUgnBKl5LYx9DwOvzy08/1PZjJX2HL64M73mhkZXo7wOugRBUfA9zCiQxEleKMaRGgSkVduftVTMlPxMIMv+r09m1JnOvn9yIpJ9IZeD6NEiRIlyqzzf+MoMdYtLxrJAAAAAElFTkSuQmCC;strokeColor=#4b6ec6;fillColor=#c6d9f1;" parent="1" vertex="1">
          <mxGeometry x="240" y="142" width="48" height="48" as="geometry" />
        </mxCell>
        <mxCell id="S913CENb46srhOgsQ4nY-20" value="Business&#xa;processes" style="shape=image;verticalLabelPosition=bottom;verticalAlign=top;imageAspect=0;aspect=fixed;image=data:image/png,iVBORw0KGgoAAAANSUhEUgAAADAAAAAwCAYAAABXAvmHAAAF+klEQVRoge2YS2yU1xXHf+d+47cN+IEbO8aYmEex4kd4GLduiR2UEiCYGFMKebRUldqqm2ZTVVU3XlWtskoXrarSpIvQoEHFxk7kKJGDIUEEFcorgG1KTDDYxg+cGePnfPOdLsaDBxgMDsHDYn6bT989Z+79n+/eOTr3QJQoUaJEeQhkOuO6f1UVOZazzYFygSzgiW9mUT2ryHyEflE9ro40VLStOlxbW+vMfK4wfN+9Yb5LzZuK7Aj6CDgK5iG1A6DCSVGeuWO4A+UPFa2r3ppJIHcFUPHuS3kY+wNgGUBa0twrJXmF3QvmZdmxMXF+HNHpJhzzj7keYFEZtcesnsG+of9d/yKz29NbGKLlkBUTU9O8tW5gxgGs21+d7vf5PgMWuyzXze2lW84VZC9ZEWPFxDzIZF+X/uEbJ5tONY98fq21HEChPdYxlR/tbOgK51/h3liijvmNETlw25Gwfb63gMUuY4396rmfXipeULDmUYsHyEhKe+bV8m3lr5TVNBtjRgSWThinruLtiviwP1BrhwgvO6K/vxXAs+6q5wWqAH64ZsvpJ1OfKH7UwkMRhKLcgnW/qHjtc0FsgVJJTP5LeG+tARClbmoH1HkdYNH8ha3FOQVrZkFzWPIycktrVm/+FEBhV6V787Oh9rXujYXAYgDLb/YbgAp31WKBDQAbCivHRabNro+cVXlFa/Mycs8BoqpvolP/VaNmKwT+J80vN5wJ7IA6PwEkNXFub05admFEVIcgIualFS8Es11xpXvTD0LM1ZPPepjK6y8ClOWvvGQZ6xvJ9Q9L1rxvPb0oI/csgCPm5wDP7d2QDxQDiEodgFnvXp8WHHwqc1FyZOSGp/Lb3x0CEEdXlh+oSvEba+ukqbPlR43HAMyExpQR2DVfesrc/EiJDUdOevZSy6IdYWHsqP950cnjoxxAUACjQhFA5pzUL5NikxIjqPcukuKSMvIznhoBUMOPgTIAYwLHB8CosgTgydTswYiovA+r80s8AKisJ1A59KUTfyhoNyIsBJifnDEaEYX3IS89d4kgfiAeQKFx3/Z9/qDdAGkAcxJSHovscydzElKys9Iy24LvwewTxKDMA4izYmdb2wNTkL00UF4LGps6fjDU9lh+9Tu50t8VCEARnyduVajNKAwCjPvHpq3zI8XwxIjnUu/lZcF3dbQ61G4Q+gEGhz2PZQBXb3S1+R1/HIgPAKHmttpIlIsAXd7elAhpnJb/Xj4rAKrOp5NDORV7N64M2g0SCODaQHe66uO1CSPjIzfPXbuwDECM2QNcAFBj3TpGRtQcB/CMenM9o96+iCi9B+29Had8fltV+dByuepR3R+w6Lagj9FM7zEFL0DPYF9HZKTezZg9PvrBmeYckLki0t28tW5ADHUAAkvX7t20HMC0VLbYIhwBOPHlycjeZEI4cfn00cFhTx5gY/FHgIPb3z8BdAAYE7jYGABB3gE413VxhXdkqCcykqe4MeL5oul0c+nk6+6WbY2tQZug9QBoIJ0agPhk+98KvX7Hbx27dPz8bAsOZcKe8P7z8J6bPr+dDFwl1vW7ULvjECwlVq51b15kAJo2No0b+BtAS/tn3/EMey/OruwAtmOP7/tPQ+t170ARoEblZy3V9V+F+lS2rT4C0g1gHGfLrVJiIt68AVy1/XbCPw6/Y4/5xr2zKd7nt4fcx+pPnem8UAqgwm8/3tH44Z1+gbaj0xDwMdW3AjiypWFIHHYB9vWhgeV/bX67c3DY0z4b4nuH+s/8+aPdnac7L0y2c+RPh7a/98a9/FXNAaBH0PN390bdm3eh+nfAZRlrrGRBwdHihU8nJ8bFuwRRdKo3mhCXYN+nwR1egKOiolaft9/3SdtRp6PvStlk49gWlV8f3NF4j4ZWgNraWjP5dMKuXvnui+vU6G6QvNB1+TpqwwUgnBKl5LYx9DwOvzy08/1PZjJX2HL64M73mhkZXo7wOugRBUfA9zCiQxEleKMaRGgSkVduftVTMlPxMIMv+r09m1JnOvn9yIpJ9IZeD6NEiRIlyqzzf+MoMdYtLxrJAAAAAElFTkSuQmCC;strokeColor=#4b6ec6;fillColor=#c6d9f1;" parent="1" vertex="1">
          <mxGeometry x="340" y="142" width="48" height="48" as="geometry" />
        </mxCell>
        <mxCell id="S913CENb46srhOgsQ4nY-21" value="" style="endArrow=classic;html=1;rounded=0;exitX=0.5;exitY=0;exitDx=0;exitDy=0;edgeStyle=orthogonalEdgeStyle;" parent="1" source="mXlHm4GdsC3o7XOTkbqg-4" target="mXlHm4GdsC3o7XOTkbqg-9" edge="1">
          <mxGeometry width="50" height="50" relative="1" as="geometry">
            <mxPoint x="440" y="250" as="sourcePoint" />
            <mxPoint x="490" y="200" as="targetPoint" />
            <Array as="points">
              <mxPoint x="494" y="130" />
              <mxPoint x="154" y="130" />
            </Array>
          </mxGeometry>
        </mxCell>
        <mxCell id="S913CENb46srhOgsQ4nY-56" value="have" style="edgeLabel;html=1;align=center;verticalAlign=middle;resizable=0;points=[];" parent="S913CENb46srhOgsQ4nY-21" connectable="0" vertex="1">
          <mxGeometry x="0.0912" y="-1" relative="1" as="geometry">
            <mxPoint as="offset" />
          </mxGeometry>
        </mxCell>
        <mxCell id="S913CENb46srhOgsQ4nY-22" value="" style="endArrow=classic;html=1;rounded=0;exitX=0;exitY=0.5;exitDx=0;exitDy=0;entryX=1;entryY=0.5;entryDx=0;entryDy=0;" parent="1" source="mXlHm4GdsC3o7XOTkbqg-4" target="S913CENb46srhOgsQ4nY-20" edge="1">
          <mxGeometry width="50" height="50" relative="1" as="geometry">
            <mxPoint x="440" y="250" as="sourcePoint" />
            <mxPoint x="490" y="200" as="targetPoint" />
          </mxGeometry>
        </mxCell>
        <mxCell id="S913CENb46srhOgsQ4nY-57" value="involved in" style="edgeLabel;html=1;align=center;verticalAlign=middle;resizable=0;points=[];" parent="S913CENb46srhOgsQ4nY-22" connectable="0" vertex="1">
          <mxGeometry x="0.2039" y="2" relative="1" as="geometry">
            <mxPoint x="9" y="-2" as="offset" />
          </mxGeometry>
        </mxCell>
        <mxCell id="S913CENb46srhOgsQ4nY-23" value="" style="endArrow=classic;html=1;rounded=0;" parent="1" source="S913CENb46srhOgsQ4nY-20" target="S913CENb46srhOgsQ4nY-19" edge="1">
          <mxGeometry width="50" height="50" relative="1" as="geometry">
            <mxPoint x="440" y="250" as="sourcePoint" />
            <mxPoint x="490" y="200" as="targetPoint" />
          </mxGeometry>
        </mxCell>
        <mxCell id="S913CENb46srhOgsQ4nY-58" value="bound" style="edgeLabel;html=1;align=center;verticalAlign=middle;resizable=0;points=[];" parent="S913CENb46srhOgsQ4nY-23" connectable="0" vertex="1">
          <mxGeometry x="0.4028" y="2" relative="1" as="geometry">
            <mxPoint x="17" y="-2" as="offset" />
          </mxGeometry>
        </mxCell>
        <mxCell id="S913CENb46srhOgsQ4nY-27" value="fulfills" style="rounded=0;orthogonalLoop=1;jettySize=auto;html=1;entryX=1;entryY=0.5;entryDx=0;entryDy=0;exitX=0;exitY=0.5;exitDx=0;exitDy=0;" parent="1" source="S913CENb46srhOgsQ4nY-26" target="S913CENb46srhOgsQ4nY-25" edge="1">
          <mxGeometry relative="1" as="geometry">
            <mxPoint x="320" y="400" as="sourcePoint" />
          </mxGeometry>
        </mxCell>
        <mxCell id="S913CENb46srhOgsQ4nY-25" value="Requirements" style="shape=image;verticalLabelPosition=bottom;labelBackgroundColor=default;verticalAlign=top;aspect=fixed;imageAspect=0;image=data:image/png,iVBORw0KGgoAAAANSUhEUgAAADAAAAAwCAYAAABXAvmHAAAFuElEQVRoge2YbWxUVRrHf8+5dwp0ChRKW8DyZl9Iky1UyhZc4pINy6qJUVn4gBqVZI2a/bKa2ALxS7+oa5FEo7vJRsLGxM1uslkKaNRgjKKwSIICAl1eFmsFmXboewud6dx7Hj9Mp53CFChihw/z+3bP/7nn/p87Z577nAMZMmTIkOEnINcSW19gEcasQ3WFiMxCmXlLnqp6DJF8kDZFDxk1u2fkeJ9LHXasU6VMILSZfOOZNwTWJ2IErIL5idbjKIcR7rpitEmQl2cE/e1jSeSqBEKbmO/45iNgIYCTO/37iUuXh5w7ijxnQravgo5uTPEj/e4NJCBEI47fcqF34FRjgdd6oWLYi+wdcP21Ra/QPuYEzm8mLytmvkQoEdftm7J+w4lAecUSCWQFbmSym8W2hw/3vb/jcvTE0RWDrk4L9jf59VxIFR+uoVIxNaKya8SSCHiyHaFEHDeS+8eas1mLqpb93OYBTF7BXVOeeGbFlMee+gRjLqOUWXUamuqYmPIGNesFHkX0xaEEWmvd1YI8CDBl/ZNH3aK5i39u4yMQYcLiqlW5zzx/HBFP0Opgn/nrKNFrAVRoGEpA1H8OIKu47GRWxZJl42A5JYEFJdWT1z2+L26KDRdrWJmst2ykAqEEAGt3GIDwJkpA7gcI3vdgFHNris3NMrFq2a8DC4pPAKJq3tCk/6rjm98DIJwufI1v4k598yQgZnpe2C2aV5EO0yMwxuQ8/Ei82gmLwxvd3yUkhTUAouyE4br+AMCk6nvO4rjpff2DuLPu+EWguPQYgPj+0wCtNRQjLAbwxTYAmO7nmQ7xwazSspw0+U1J9srf9gKoSNXFWiYjg8sHzhXWcxDARF1nOSAYE3PyCorTZTYVgTkLysQxpwXmWZzVorIGAGWXEP+gGtBFAG7BzGbJDman0e9VSHDyDPfOhZcBUPsE6HIAg2lIxBigFMCdPaczHSavR3DZr7oBBLmXeDW6mNfs7U3oRtB5ACa/oD89Fq+NM7e4FBEfhr7K78m/8RO6UZHpAM7U3Nui+lyJyZ02251ddCpxLUjDCB0lF0ACWePt7YbJKq9ItNfqq/9psnZbvvUr8Zq/SyQgjrA0WTNAJ4AOREbv89OI7evtjn17amHiWjFrknUD2gagHR23ZQL+D82n1PcniBIbHFqb3BsZkDMAA62hyWlxeB36vzooACq6b3CoqK2WqoRugDMAXnNTHnp7/Qjad6kvevxofPmo+QfwPwDV4WVkFHsIwPZ2z7XdHRfTYXQ0ov8/cUS9mILuGQj4OxF2ACCsS8SYgiAHgR4AL3ShKT1Wr0ajkf5LH+4uEpiKSqjoFdrFj3egKGVttZQDGKnDQ3Q/QOTQf695TjSeRA4dOGA72+cDnlH7Z4D8rXwFNAFYG+9MDYBY8y5AtPHYEr+nqyU9lofxu9q/7fugoRpAYNuMrZxMaEp8I4PENzYGoCvq/wcI4/tO5Mt9jeNveRgdiPb0bPtLH7FYDnDejdnNybpgE61EVcsLLDAApW8SVeFvAP2f7bnbdnWcGV/bcdTzor3/euekFw4tAlQxf5j2Ol3JMflB9iOEABzMQ0OthMFuAc6rF5vUte0tT6P9PeNqPhbr7f3n349Ejx+uBlBhY+EWb8+VcVKHVWU3gBpZM5RAfj29VswGwPPDofLOt+rPeR1tp8fDvBdu+abj9ZfORY99HT/OUV4trLdbRosXK7uAFlFtvKrqhGucDaBvA644TmRi5S8PTKhcmiOTsl0VUZLORk12jnedA+7UqIqodbxwa+zy3o9trOnMcuL/R0+FPxXW29EOtOK31w0Wnzpsyqe31LqrjNptwPyhrEH1ptym5AhQOcIUNAr22YItfDGWiVK20zPrvU8uBW058BzIfsDCUDN1K0jsqDoR/VBUHivotpVjNQ9jeKNdm5g21smvx9Sz9CRvDzNkyJAhw7jzI7DQE8aOObeBAAAAAElFTkSuQmCC;strokeColor=#4b6ec6;fillColor=#c6d9f1;" parent="1" vertex="1">
          <mxGeometry x="130" y="300" width="48" height="48" as="geometry" />
        </mxCell>
        <mxCell id="S913CENb46srhOgsQ4nY-29" value="contributes to" style="rounded=0;orthogonalLoop=1;jettySize=auto;html=1;exitX=1;exitY=0.5;exitDx=0;exitDy=0;entryX=0;entryY=0.75;entryDx=0;entryDy=0;" parent="1" source="S913CENb46srhOgsQ4nY-26" target="S913CENb46srhOgsQ4nY-30" edge="1">
          <mxGeometry relative="1" as="geometry">
            <mxPoint x="580" y="180" as="targetPoint" />
          </mxGeometry>
        </mxCell>
        <mxCell id="S913CENb46srhOgsQ4nY-26" value="Artefact" style="shape=image;verticalLabelPosition=bottom;labelBackgroundColor=default;verticalAlign=top;aspect=fixed;imageAspect=0;image=data:image/png,iVBORw0KGgoAAAANSUhEUgAAADAAAAAwCAYAAABXAvmHAAAFuElEQVRoge2YbWxUVRrHf8+5dwp0ChRKW8DyZl9Iky1UyhZc4pINy6qJUVn4gBqVZI2a/bKa2ALxS7+oa5FEo7vJRsLGxM1uslkKaNRgjKKwSIICAl1eFmsFmXboewud6dx7Hj9Mp53CFChihw/z+3bP/7nn/p87Z577nAMZMmTIkOEnINcSW19gEcasQ3WFiMxCmXlLnqp6DJF8kDZFDxk1u2fkeJ9LHXasU6VMILSZfOOZNwTWJ2IErIL5idbjKIcR7rpitEmQl2cE/e1jSeSqBEKbmO/45iNgIYCTO/37iUuXh5w7ijxnQravgo5uTPEj/e4NJCBEI47fcqF34FRjgdd6oWLYi+wdcP21Ra/QPuYEzm8mLytmvkQoEdftm7J+w4lAecUSCWQFbmSym8W2hw/3vb/jcvTE0RWDrk4L9jf59VxIFR+uoVIxNaKya8SSCHiyHaFEHDeS+8eas1mLqpb93OYBTF7BXVOeeGbFlMee+gRjLqOUWXUamuqYmPIGNesFHkX0xaEEWmvd1YI8CDBl/ZNH3aK5i39u4yMQYcLiqlW5zzx/HBFP0Opgn/nrKNFrAVRoGEpA1H8OIKu47GRWxZJl42A5JYEFJdWT1z2+L26KDRdrWJmst2ykAqEEAGt3GIDwJkpA7gcI3vdgFHNris3NMrFq2a8DC4pPAKJq3tCk/6rjm98DIJwufI1v4k598yQgZnpe2C2aV5EO0yMwxuQ8/Ei82gmLwxvd3yUkhTUAouyE4br+AMCk6nvO4rjpff2DuLPu+EWguPQYgPj+0wCtNRQjLAbwxTYAmO7nmQ7xwazSspw0+U1J9srf9gKoSNXFWiYjg8sHzhXWcxDARF1nOSAYE3PyCorTZTYVgTkLysQxpwXmWZzVorIGAGWXEP+gGtBFAG7BzGbJDman0e9VSHDyDPfOhZcBUPsE6HIAg2lIxBigFMCdPaczHSavR3DZr7oBBLmXeDW6mNfs7U3oRtB5ACa/oD89Fq+NM7e4FBEfhr7K78m/8RO6UZHpAM7U3Nui+lyJyZ02251ddCpxLUjDCB0lF0ACWePt7YbJKq9ItNfqq/9psnZbvvUr8Zq/SyQgjrA0WTNAJ4AOREbv89OI7evtjn17amHiWjFrknUD2gagHR23ZQL+D82n1PcniBIbHFqb3BsZkDMAA62hyWlxeB36vzooACq6b3CoqK2WqoRugDMAXnNTHnp7/Qjad6kvevxofPmo+QfwPwDV4WVkFHsIwPZ2z7XdHRfTYXQ0ov8/cUS9mILuGQj4OxF2ACCsS8SYgiAHgR4AL3ShKT1Wr0ajkf5LH+4uEpiKSqjoFdrFj3egKGVttZQDGKnDQ3Q/QOTQf695TjSeRA4dOGA72+cDnlH7Z4D8rXwFNAFYG+9MDYBY8y5AtPHYEr+nqyU9lofxu9q/7fugoRpAYNuMrZxMaEp8I4PENzYGoCvq/wcI4/tO5Mt9jeNveRgdiPb0bPtLH7FYDnDejdnNybpgE61EVcsLLDAApW8SVeFvAP2f7bnbdnWcGV/bcdTzor3/euekFw4tAlQxf5j2Ol3JMflB9iOEABzMQ0OthMFuAc6rF5vUte0tT6P9PeNqPhbr7f3n349Ejx+uBlBhY+EWb8+VcVKHVWU3gBpZM5RAfj29VswGwPPDofLOt+rPeR1tp8fDvBdu+abj9ZfORY99HT/OUV4trLdbRosXK7uAFlFtvKrqhGucDaBvA644TmRi5S8PTKhcmiOTsl0VUZLORk12jnedA+7UqIqodbxwa+zy3o9trOnMcuL/R0+FPxXW29EOtOK31w0Wnzpsyqe31LqrjNptwPyhrEH1ptym5AhQOcIUNAr22YItfDGWiVK20zPrvU8uBW058BzIfsDCUDN1K0jsqDoR/VBUHivotpVjNQ9jeKNdm5g21smvx9Sz9CRvDzNkyJAhw7jzI7DQE8aOObeBAAAAAElFTkSuQmCC;strokeColor=#4b6ec6;fillColor=#c6d9f1;" parent="1" vertex="1">
          <mxGeometry x="340" y="300" width="48" height="48" as="geometry" />
        </mxCell>
        <mxCell id="S913CENb46srhOgsQ4nY-30" value="Knowledge&#xa;base" style="shape=image;verticalLabelPosition=bottom;verticalAlign=top;imageAspect=0;aspect=fixed;image=data:image/png,iVBORw0KGgoAAAANSUhEUgAAADAAAAAwCAYAAABXAvmHAAAF+klEQVRoge2YS2yU1xXHf+d+47cN+IEbO8aYmEex4kd4GLduiR2UEiCYGFMKebRUldqqm2ZTVVU3XlWtskoXrarSpIvQoEHFxk7kKJGDIUEEFcorgG1KTDDYxg+cGePnfPOdLsaDBxgMDsHDYn6bT989Z+79n+/eOTr3QJQoUaJEeQhkOuO6f1UVOZazzYFygSzgiW9mUT2ryHyEflE9ro40VLStOlxbW+vMfK4wfN+9Yb5LzZuK7Aj6CDgK5iG1A6DCSVGeuWO4A+UPFa2r3ppJIHcFUPHuS3kY+wNgGUBa0twrJXmF3QvmZdmxMXF+HNHpJhzzj7keYFEZtcesnsG+of9d/yKz29NbGKLlkBUTU9O8tW5gxgGs21+d7vf5PgMWuyzXze2lW84VZC9ZEWPFxDzIZF+X/uEbJ5tONY98fq21HEChPdYxlR/tbOgK51/h3liijvmNETlw25Gwfb63gMUuY4396rmfXipeULDmUYsHyEhKe+bV8m3lr5TVNBtjRgSWThinruLtiviwP1BrhwgvO6K/vxXAs+6q5wWqAH64ZsvpJ1OfKH7UwkMRhKLcgnW/qHjtc0FsgVJJTP5LeG+tARClbmoH1HkdYNH8ha3FOQVrZkFzWPIycktrVm/+FEBhV6V787Oh9rXujYXAYgDLb/YbgAp31WKBDQAbCivHRabNro+cVXlFa/Mycs8BoqpvolP/VaNmKwT+J80vN5wJ7IA6PwEkNXFub05admFEVIcgIualFS8Es11xpXvTD0LM1ZPPepjK6y8ClOWvvGQZ6xvJ9Q9L1rxvPb0oI/csgCPm5wDP7d2QDxQDiEodgFnvXp8WHHwqc1FyZOSGp/Lb3x0CEEdXlh+oSvEba+ukqbPlR43HAMyExpQR2DVfesrc/EiJDUdOevZSy6IdYWHsqP950cnjoxxAUACjQhFA5pzUL5NikxIjqPcukuKSMvIznhoBUMOPgTIAYwLHB8CosgTgydTswYiovA+r80s8AKisJ1A59KUTfyhoNyIsBJifnDEaEYX3IS89d4kgfiAeQKFx3/Z9/qDdAGkAcxJSHovscydzElKys9Iy24LvwewTxKDMA4izYmdb2wNTkL00UF4LGps6fjDU9lh+9Tu50t8VCEARnyduVajNKAwCjPvHpq3zI8XwxIjnUu/lZcF3dbQ61G4Q+gEGhz2PZQBXb3S1+R1/HIgPAKHmttpIlIsAXd7elAhpnJb/Xj4rAKrOp5NDORV7N64M2g0SCODaQHe66uO1CSPjIzfPXbuwDECM2QNcAFBj3TpGRtQcB/CMenM9o96+iCi9B+29Had8fltV+dByuepR3R+w6Lagj9FM7zEFL0DPYF9HZKTezZg9PvrBmeYckLki0t28tW5ADHUAAkvX7t20HMC0VLbYIhwBOPHlycjeZEI4cfn00cFhTx5gY/FHgIPb3z8BdAAYE7jYGABB3gE413VxhXdkqCcykqe4MeL5oul0c+nk6+6WbY2tQZug9QBoIJ0agPhk+98KvX7Hbx27dPz8bAsOZcKe8P7z8J6bPr+dDFwl1vW7ULvjECwlVq51b15kAJo2No0b+BtAS/tn3/EMey/OruwAtmOP7/tPQ+t170ARoEblZy3V9V+F+lS2rT4C0g1gHGfLrVJiIt68AVy1/XbCPw6/Y4/5xr2zKd7nt4fcx+pPnem8UAqgwm8/3tH44Z1+gbaj0xDwMdW3AjiypWFIHHYB9vWhgeV/bX67c3DY0z4b4nuH+s/8+aPdnac7L0y2c+RPh7a/98a9/FXNAaBH0PN390bdm3eh+nfAZRlrrGRBwdHihU8nJ8bFuwRRdKo3mhCXYN+nwR1egKOiolaft9/3SdtRp6PvStlk49gWlV8f3NF4j4ZWgNraWjP5dMKuXvnui+vU6G6QvNB1+TpqwwUgnBKl5LYx9DwOvzy08/1PZjJX2HL64M73mhkZXo7wOugRBUfA9zCiQxEleKMaRGgSkVduftVTMlPxMIMv+r09m1JnOvn9yIpJ9IZeD6NEiRIlyqzzf+MoMdYtLxrJAAAAAElFTkSuQmCC;strokeColor=#4b6ec6;fillColor=#c6d9f1;" parent="1" vertex="1">
          <mxGeometry x="580" y="142" width="48" height="48" as="geometry" />
        </mxCell>
        <mxCell id="S913CENb46srhOgsQ4nY-32" value="" style="endArrow=classic;html=1;rounded=0;entryX=1;entryY=0.75;entryDx=0;entryDy=0;exitX=0;exitY=0.5;exitDx=0;exitDy=0;" parent="1" source="S913CENb46srhOgsQ4nY-37" target="S913CENb46srhOgsQ4nY-26" edge="1">
          <mxGeometry width="50" height="50" relative="1" as="geometry">
            <mxPoint x="438" y="430" as="sourcePoint" />
            <mxPoint x="640" y="260" as="targetPoint" />
          </mxGeometry>
        </mxCell>
        <mxCell id="S913CENb46srhOgsQ4nY-62" value="creates" style="edgeLabel;html=1;align=center;verticalAlign=middle;resizable=0;points=[];" parent="S913CENb46srhOgsQ4nY-32" connectable="0" vertex="1">
          <mxGeometry x="0.2303" y="-2" relative="1" as="geometry">
            <mxPoint x="1" as="offset" />
          </mxGeometry>
        </mxCell>
        <mxCell id="S913CENb46srhOgsQ4nY-34" value="" style="endArrow=classic;html=1;rounded=0;exitX=0;exitY=0.75;exitDx=0;exitDy=0;entryX=0;entryY=0.5;entryDx=0;entryDy=0;edgeStyle=orthogonalEdgeStyle;" parent="1" source="S913CENb46srhOgsQ4nY-25" target="S913CENb46srhOgsQ4nY-35" edge="1">
          <mxGeometry width="50" height="50" relative="1" as="geometry">
            <mxPoint x="540" y="300" as="sourcePoint" />
            <mxPoint x="590" y="250" as="targetPoint" />
            <Array as="points">
              <mxPoint x="110" y="336" />
              <mxPoint x="110" y="454" />
            </Array>
          </mxGeometry>
        </mxCell>
        <mxCell id="S913CENb46srhOgsQ4nY-67" value="scope" style="edgeLabel;html=1;align=center;verticalAlign=middle;resizable=0;points=[];" parent="S913CENb46srhOgsQ4nY-34" connectable="0" vertex="1">
          <mxGeometry x="0.424" y="1" relative="1" as="geometry">
            <mxPoint as="offset" />
          </mxGeometry>
        </mxCell>
        <mxCell id="S913CENb46srhOgsQ4nY-35" value="DS Research" style="shape=image;verticalLabelPosition=bottom;labelBackgroundColor=default;verticalAlign=top;aspect=fixed;imageAspect=0;image=data:image/png,iVBORw0KGgoAAAANSUhEUgAAADAAAAAwCAYAAABXAvmHAAAF70lEQVRoge2YW2xU1xWGv7XPzHg82GZiLrWNCU5toE4DhkDBwbQBIQIYYuSQVlGlJJYq9aJCIQ9tVfXFT1XbvJQ6rdQ2TV/SRhFtbIxIqkiJmwRfkEIgoYC5hTvGxsZXbM/4nLP6MDPu2NgYk+Dxw3wv5+y9lvb519Y6a18gSZIkSZJ8AeRuxrLdTUsddZ8VoQTIViXry/mqHkdlDtAOfCxGalcGiz+srBR30kON1bll14dzjPHsRXkuzscFzH2LjkOVoyIsH9V9QZFfrcosfm0ygdwRwOY9jXkeV/+tsBggPcN7uWhxsCV7dort9XkcAR1/NCEUGvJMGAAig2HH6ugM95672De3/dbgkpgWhQ9SHGtH9R9Wd0w6gPIfH54VNk4TQoFlmb7tG+edKFiQ/rjXI957Gex+6ewOHa1raOs/9XlPSaRHz1iurq99Ze31sfxL99QvM6781EX2j0iJsLFfi4iXwRd35J0vzM9Y/aDFAzw0M2V5+eb5JeWb579nRPpBFjnGVK+rqPOP5S9qnlP4LugvhwMo3d20EZEygLINuZ9mz0ktetDCR4gSeDQ/Y8Pz2/P+K4INrApk+P84prOrOwAMWj0cgKjuAcjLCTQX5qevngrRY5E7L7Bq27qcQwCCVjy9q+HJeHvpzoYlCAUARqy3DEDZSw0FoFsAnizOCom5a3V94Cz5WvBbD+cETgDiiuwF/b8gI89EXvRM7d7izwyA68qLgAQzfG3ZX/EvSYDmEYgRs+mb2dFqp0Vbdzc+NWyDcgCFGojWdVXdBrD80eB5y8iXUuu/KHNn+x+bnxM4Hm1+H2DLrvp80CIAVa0GMJteasgEigDyctPSEiF2PNYsm9sLgOqKsp8dShci6aOqV96pKjkMYLyOWwyIMTIUnOnLT5zcO8nOSlkkljkDssAZsDbG0keQ/SAKYFzMUoDMoO9SwG8FEil4NDNSPbO/mj2jHwDRFxCKAdxo+gAYgYUAWXP8nQlROQFFXw92A6BsIrJzuJnWeu2DmN0ACwAyZ/oGEiFwIuZlpS4UwUGIrcoH9u37jhOzG4FMgGC6b1pUn9FkpHlz5s4KnI61VaiOtxuFIIDHm9jF624sfGRGZHutqO3trYu3TctZH8311v5IAIKkhNJXxtsMSidAKKTj7/MTSP+A033p6uDiWNuRSCmNYVRoB+jpC0/LAG609Z92XCdFkSEAgR3xeyNj4CxAW0coPVEi78bx5m4BENxD0a7c0p31K2J2QzSAa639s6ZbEvUP2n3NF3si6SPyd+BU5FWG08g4rnwM0Hfbfrj39tDNRAgdj0uX+44N2aqCvuuzrRrQtwAQno35mIHZg4eBHoC2jsELiZF6J6GQM/B+481cgZmKtEQO+VZ0DZBFW/c0FgKY/1Sut0WoBzh2qmvaLAafnu5u7OoL5wG2cfk1wMHfFx8BIpPs8gxE1wEXXgc4d6H38d7b9o2EKI6juyf8eV1D6yoAhVcPvLKmOc5cE3loOcQONG7Xv0Roc1y1Pjlx6+QU6x1BeMjteePg5T7bcdOAqz4T+sUIB3VjW4kVT+88/IgBeKeqNKTKnwCajnY80XPbPjulqqM4joZq37/e3HErtBRQo/q9mt+t74r3+casknqgBcAVZ/vwVsLyuy8DV23bTf1HzUU7HLJ7plK87Wjv/veuHTt9rjuSOsrPD1SVvDvar7JSXIRaAITy4QBqf7u2V6ACsDu6QoV/++eFK13dQ2emQnx7Z+izv755/sqps92R6xyR37xdtebl8fxdR/YDNxRO3lF1Snc1VojoXwCPZclgYUGw8bFF6Wn+FMsjqIrI8HKX6vfa9yNYVUUVq71rcKjpkw73Skt/MZH/0UZ098G9JWNfaEWprFQTeYo7Ztnc9pOGDQqvAnnx32WC6/h7RjiGsmxU70nU/eHBqrUfTW6ocVhXUedPy0j5gQrfRnkCsAHffcgdiyPACqBThCYXXm8d8O078ueVQ5Md6J5ndOuPPnposoNPRKC9pSf+eJgkSZIkSaac/wF/yStoKpngLAAAAABJRU5ErkJggg==;strokeColor=#4b6ec6;fillColor=#c6d9f1;" parent="1" vertex="1">
          <mxGeometry x="130" y="430" width="48" height="48" as="geometry" />
        </mxCell>
        <mxCell id="S913CENb46srhOgsQ4nY-36" value="Research strategy" style="shape=image;verticalLabelPosition=bottom;labelBackgroundColor=default;verticalAlign=top;aspect=fixed;imageAspect=0;image=data:image/png,iVBORw0KGgoAAAANSUhEUgAAADAAAAAwCAYAAABXAvmHAAAF70lEQVRoge2YW2xU1xWGv7XPzHg82GZiLrWNCU5toE4DhkDBwbQBIQIYYuSQVlGlJJYq9aJCIQ9tVfXFT1XbvJQ6rdQ2TV/SRhFtbIxIqkiJmwRfkEIgoYC5hTvGxsZXbM/4nLP6MDPu2NgYk+Dxw3wv5+y9lvb519Y6a18gSZIkSZJ8AeRuxrLdTUsddZ8VoQTIViXry/mqHkdlDtAOfCxGalcGiz+srBR30kON1bll14dzjPHsRXkuzscFzH2LjkOVoyIsH9V9QZFfrcosfm0ygdwRwOY9jXkeV/+tsBggPcN7uWhxsCV7dort9XkcAR1/NCEUGvJMGAAig2HH6ugM95672De3/dbgkpgWhQ9SHGtH9R9Wd0w6gPIfH54VNk4TQoFlmb7tG+edKFiQ/rjXI957Gex+6ewOHa1raOs/9XlPSaRHz1iurq99Ze31sfxL99QvM6781EX2j0iJsLFfi4iXwRd35J0vzM9Y/aDFAzw0M2V5+eb5JeWb579nRPpBFjnGVK+rqPOP5S9qnlP4LugvhwMo3d20EZEygLINuZ9mz0ktetDCR4gSeDQ/Y8Pz2/P+K4INrApk+P84prOrOwAMWj0cgKjuAcjLCTQX5qevngrRY5E7L7Bq27qcQwCCVjy9q+HJeHvpzoYlCAUARqy3DEDZSw0FoFsAnizOCom5a3V94Cz5WvBbD+cETgDiiuwF/b8gI89EXvRM7d7izwyA68qLgAQzfG3ZX/EvSYDmEYgRs+mb2dFqp0Vbdzc+NWyDcgCFGojWdVXdBrD80eB5y8iXUuu/KHNn+x+bnxM4Hm1+H2DLrvp80CIAVa0GMJteasgEigDyctPSEiF2PNYsm9sLgOqKsp8dShci6aOqV96pKjkMYLyOWwyIMTIUnOnLT5zcO8nOSlkkljkDssAZsDbG0keQ/SAKYFzMUoDMoO9SwG8FEil4NDNSPbO/mj2jHwDRFxCKAdxo+gAYgYUAWXP8nQlROQFFXw92A6BsIrJzuJnWeu2DmN0ACwAyZ/oGEiFwIuZlpS4UwUGIrcoH9u37jhOzG4FMgGC6b1pUn9FkpHlz5s4KnI61VaiOtxuFIIDHm9jF624sfGRGZHutqO3trYu3TctZH8311v5IAIKkhNJXxtsMSidAKKTj7/MTSP+A033p6uDiWNuRSCmNYVRoB+jpC0/LAG609Z92XCdFkSEAgR3xeyNj4CxAW0coPVEi78bx5m4BENxD0a7c0p31K2J2QzSAa639s6ZbEvUP2n3NF3si6SPyd+BU5FWG08g4rnwM0Hfbfrj39tDNRAgdj0uX+44N2aqCvuuzrRrQtwAQno35mIHZg4eBHoC2jsELiZF6J6GQM/B+481cgZmKtEQO+VZ0DZBFW/c0FgKY/1Sut0WoBzh2qmvaLAafnu5u7OoL5wG2cfk1wMHfFx8BIpPs8gxE1wEXXgc4d6H38d7b9o2EKI6juyf8eV1D6yoAhVcPvLKmOc5cE3loOcQONG7Xv0Roc1y1Pjlx6+QU6x1BeMjteePg5T7bcdOAqz4T+sUIB3VjW4kVT+88/IgBeKeqNKTKnwCajnY80XPbPjulqqM4joZq37/e3HErtBRQo/q9mt+t74r3+casknqgBcAVZ/vwVsLyuy8DV23bTf1HzUU7HLJ7plK87Wjv/veuHTt9rjuSOsrPD1SVvDvar7JSXIRaAITy4QBqf7u2V6ACsDu6QoV/++eFK13dQ2emQnx7Z+izv755/sqps92R6xyR37xdtebl8fxdR/YDNxRO3lF1Snc1VojoXwCPZclgYUGw8bFF6Wn+FMsjqIrI8HKX6vfa9yNYVUUVq71rcKjpkw73Skt/MZH/0UZ098G9JWNfaEWprFQTeYo7Ztnc9pOGDQqvAnnx32WC6/h7RjiGsmxU70nU/eHBqrUfTW6ocVhXUedPy0j5gQrfRnkCsAHffcgdiyPACqBThCYXXm8d8O078ueVQ5Md6J5ndOuPPnposoNPRKC9pSf+eJgkSZIkSaac/wF/yStoKpngLAAAAABJRU5ErkJggg==;strokeColor=#4b6ec6;fillColor=#c6d9f1;" parent="1" vertex="1">
          <mxGeometry x="340" y="430" width="48" height="48" as="geometry" />
        </mxCell>
        <mxCell id="S913CENb46srhOgsQ4nY-39" style="rounded=0;orthogonalLoop=1;jettySize=auto;html=1;exitX=0;exitY=0.5;exitDx=0;exitDy=0;entryX=1;entryY=0.5;entryDx=0;entryDy=0;" parent="1" source="S913CENb46srhOgsQ4nY-37" target="S913CENb46srhOgsQ4nY-36" edge="1">
          <mxGeometry relative="1" as="geometry">
            <mxPoint x="330" y="500" as="targetPoint" />
          </mxGeometry>
        </mxCell>
        <mxCell id="S913CENb46srhOgsQ4nY-65" value="applies" style="edgeLabel;html=1;align=center;verticalAlign=middle;resizable=0;points=[];" parent="S913CENb46srhOgsQ4nY-39" connectable="0" vertex="1">
          <mxGeometry x="0.432" y="-1" relative="1" as="geometry">
            <mxPoint as="offset" />
          </mxGeometry>
        </mxCell>
        <mxCell id="S913CENb46srhOgsQ4nY-37" value="Researcher(s)" style="shape=image;verticalLabelPosition=bottom;labelBackgroundColor=default;verticalAlign=top;aspect=fixed;imageAspect=0;image=data:image/png,iVBORw0KGgoAAAANSUhEUgAAADAAAAAwCAYAAABXAvmHAAAF70lEQVRoge2YW2xU1xWGv7XPzHg82GZiLrWNCU5toE4DhkDBwbQBIQIYYuSQVlGlJJYq9aJCIQ9tVfXFT1XbvJQ6rdQ2TV/SRhFtbIxIqkiJmwRfkEIgoYC5hTvGxsZXbM/4nLP6MDPu2NgYk+Dxw3wv5+y9lvb519Y6a18gSZIkSZJ8AeRuxrLdTUsddZ8VoQTIViXry/mqHkdlDtAOfCxGalcGiz+srBR30kON1bll14dzjPHsRXkuzscFzH2LjkOVoyIsH9V9QZFfrcosfm0ygdwRwOY9jXkeV/+tsBggPcN7uWhxsCV7dort9XkcAR1/NCEUGvJMGAAig2HH6ugM95672De3/dbgkpgWhQ9SHGtH9R9Wd0w6gPIfH54VNk4TQoFlmb7tG+edKFiQ/rjXI957Gex+6ewOHa1raOs/9XlPSaRHz1iurq99Ze31sfxL99QvM6781EX2j0iJsLFfi4iXwRd35J0vzM9Y/aDFAzw0M2V5+eb5JeWb579nRPpBFjnGVK+rqPOP5S9qnlP4LugvhwMo3d20EZEygLINuZ9mz0ktetDCR4gSeDQ/Y8Pz2/P+K4INrApk+P84prOrOwAMWj0cgKjuAcjLCTQX5qevngrRY5E7L7Bq27qcQwCCVjy9q+HJeHvpzoYlCAUARqy3DEDZSw0FoFsAnizOCom5a3V94Cz5WvBbD+cETgDiiuwF/b8gI89EXvRM7d7izwyA68qLgAQzfG3ZX/EvSYDmEYgRs+mb2dFqp0Vbdzc+NWyDcgCFGojWdVXdBrD80eB5y8iXUuu/KHNn+x+bnxM4Hm1+H2DLrvp80CIAVa0GMJteasgEigDyctPSEiF2PNYsm9sLgOqKsp8dShci6aOqV96pKjkMYLyOWwyIMTIUnOnLT5zcO8nOSlkkljkDssAZsDbG0keQ/SAKYFzMUoDMoO9SwG8FEil4NDNSPbO/mj2jHwDRFxCKAdxo+gAYgYUAWXP8nQlROQFFXw92A6BsIrJzuJnWeu2DmN0ACwAyZ/oGEiFwIuZlpS4UwUGIrcoH9u37jhOzG4FMgGC6b1pUn9FkpHlz5s4KnI61VaiOtxuFIIDHm9jF624sfGRGZHutqO3trYu3TctZH8311v5IAIKkhNJXxtsMSidAKKTj7/MTSP+A033p6uDiWNuRSCmNYVRoB+jpC0/LAG609Z92XCdFkSEAgR3xeyNj4CxAW0coPVEi78bx5m4BENxD0a7c0p31K2J2QzSAa639s6ZbEvUP2n3NF3si6SPyd+BU5FWG08g4rnwM0Hfbfrj39tDNRAgdj0uX+44N2aqCvuuzrRrQtwAQno35mIHZg4eBHoC2jsELiZF6J6GQM/B+481cgZmKtEQO+VZ0DZBFW/c0FgKY/1Sut0WoBzh2qmvaLAafnu5u7OoL5wG2cfk1wMHfFx8BIpPs8gxE1wEXXgc4d6H38d7b9o2EKI6juyf8eV1D6yoAhVcPvLKmOc5cE3loOcQONG7Xv0Roc1y1Pjlx6+QU6x1BeMjteePg5T7bcdOAqz4T+sUIB3VjW4kVT+88/IgBeKeqNKTKnwCajnY80XPbPjulqqM4joZq37/e3HErtBRQo/q9mt+t74r3+casknqgBcAVZ/vwVsLyuy8DV23bTf1HzUU7HLJ7plK87Wjv/veuHTt9rjuSOsrPD1SVvDvar7JSXIRaAITy4QBqf7u2V6ACsDu6QoV/++eFK13dQ2emQnx7Z+izv755/sqps92R6xyR37xdtebl8fxdR/YDNxRO3lF1Snc1VojoXwCPZclgYUGw8bFF6Wn+FMsjqIrI8HKX6vfa9yNYVUUVq71rcKjpkw73Skt/MZH/0UZ098G9JWNfaEWprFQTeYo7Ztnc9pOGDQqvAnnx32WC6/h7RjiGsmxU70nU/eHBqrUfTW6ocVhXUedPy0j5gQrfRnkCsAHffcgdiyPACqBThCYXXm8d8O078ueVQ5Md6J5ndOuPPnposoNPRKC9pSf+eJgkSZIkSaac/wF/yStoKpngLAAAAABJRU5ErkJggg==;strokeColor=#4b6ec6;fillColor=#c6d9f1;" parent="1" vertex="1">
          <mxGeometry x="600" y="430" width="48" height="48" as="geometry" />
        </mxCell>
        <mxCell id="S913CENb46srhOgsQ4nY-38" value="" style="endArrow=classic;html=1;rounded=0;exitX=0;exitY=0.5;exitDx=0;exitDy=0;entryX=0;entryY=0.5;entryDx=0;entryDy=0;edgeStyle=orthogonalEdgeStyle;" parent="1" source="mXlHm4GdsC3o7XOTkbqg-9" target="S913CENb46srhOgsQ4nY-25" edge="1">
          <mxGeometry width="50" height="50" relative="1" as="geometry">
            <mxPoint x="440" y="320" as="sourcePoint" />
            <mxPoint x="490" y="270" as="targetPoint" />
            <Array as="points">
              <mxPoint x="110" y="166" />
              <mxPoint x="110" y="324" />
            </Array>
          </mxGeometry>
        </mxCell>
        <mxCell id="S913CENb46srhOgsQ4nY-68" value="focuses" style="edgeLabel;html=1;align=center;verticalAlign=middle;resizable=0;points=[];" parent="S913CENb46srhOgsQ4nY-38" connectable="0" vertex="1">
          <mxGeometry x="0.1955" y="1" relative="1" as="geometry">
            <mxPoint as="offset" />
          </mxGeometry>
        </mxCell>
        <mxCell id="S913CENb46srhOgsQ4nY-40" value="" style="endArrow=classic;html=1;rounded=0;exitX=0;exitY=0.5;exitDx=0;exitDy=0;" parent="1" source="S913CENb46srhOgsQ4nY-36" target="S913CENb46srhOgsQ4nY-35" edge="1">
          <mxGeometry width="50" height="50" relative="1" as="geometry">
            <mxPoint x="370" y="320" as="sourcePoint" />
            <mxPoint x="180" y="460" as="targetPoint" />
          </mxGeometry>
        </mxCell>
        <mxCell id="S913CENb46srhOgsQ4nY-66" value="guides" style="edgeLabel;html=1;align=center;verticalAlign=middle;resizable=0;points=[];" parent="S913CENb46srhOgsQ4nY-40" connectable="0" vertex="1">
          <mxGeometry x="-0.1642" y="-2" relative="1" as="geometry">
            <mxPoint as="offset" />
          </mxGeometry>
        </mxCell>
        <mxCell id="S913CENb46srhOgsQ4nY-41" value="" style="endArrow=classic;html=1;rounded=0;edgeStyle=orthogonalEdgeStyle;" parent="1" source="S913CENb46srhOgsQ4nY-37" edge="1">
          <mxGeometry width="50" height="50" relative="1" as="geometry">
            <mxPoint x="370" y="320" as="sourcePoint" />
            <mxPoint x="180" y="470" as="targetPoint" />
            <Array as="points">
              <mxPoint x="580" y="470" />
              <mxPoint x="580" y="520" />
              <mxPoint x="200" y="520" />
              <mxPoint x="200" y="470" />
            </Array>
          </mxGeometry>
        </mxCell>
        <mxCell id="S913CENb46srhOgsQ4nY-64" value="performs" style="edgeLabel;html=1;align=center;verticalAlign=middle;resizable=0;points=[];" parent="S913CENb46srhOgsQ4nY-41" connectable="0" vertex="1">
          <mxGeometry x="0.3603" relative="1" as="geometry">
            <mxPoint x="68" as="offset" />
          </mxGeometry>
        </mxCell>
        <mxCell id="S913CENb46srhOgsQ4nY-42" value="" style="endArrow=classic;html=1;rounded=0;exitX=0;exitY=0.5;exitDx=0;exitDy=0;" parent="1" source="S913CENb46srhOgsQ4nY-19" target="mXlHm4GdsC3o7XOTkbqg-9" edge="1">
          <mxGeometry width="50" height="50" relative="1" as="geometry">
            <mxPoint x="440" y="320" as="sourcePoint" />
            <mxPoint x="490" y="270" as="targetPoint" />
          </mxGeometry>
        </mxCell>
        <mxCell id="S913CENb46srhOgsQ4nY-59" value="points to" style="edgeLabel;html=1;align=center;verticalAlign=middle;resizable=0;points=[];" parent="S913CENb46srhOgsQ4nY-42" connectable="0" vertex="1">
          <mxGeometry x="0.3903" relative="1" as="geometry">
            <mxPoint x="13" as="offset" />
          </mxGeometry>
        </mxCell>
        <mxCell id="S913CENb46srhOgsQ4nY-43" value="" style="endArrow=classic;html=1;rounded=0;exitX=0.75;exitY=0;exitDx=0;exitDy=0;entryX=0;entryY=0.5;entryDx=0;entryDy=0;" parent="1" source="S913CENb46srhOgsQ4nY-35" target="S913CENb46srhOgsQ4nY-26" edge="1">
          <mxGeometry width="50" height="50" relative="1" as="geometry">
            <mxPoint x="440" y="390" as="sourcePoint" />
            <mxPoint x="490" y="340" as="targetPoint" />
          </mxGeometry>
        </mxCell>
        <mxCell id="S913CENb46srhOgsQ4nY-45" value="" style="endArrow=classic;html=1;rounded=0;exitX=0;exitY=0.75;exitDx=0;exitDy=0;entryX=0.5;entryY=0;entryDx=0;entryDy=0;" parent="1" source="mXlHm4GdsC3o7XOTkbqg-4" target="S913CENb46srhOgsQ4nY-26" edge="1">
          <mxGeometry width="50" height="50" relative="1" as="geometry">
            <mxPoint x="440" y="390" as="sourcePoint" />
            <mxPoint x="490" y="340" as="targetPoint" />
          </mxGeometry>
        </mxCell>
        <mxCell id="S913CENb46srhOgsQ4nY-61" value="use" style="edgeLabel;html=1;align=center;verticalAlign=middle;resizable=0;points=[];" parent="S913CENb46srhOgsQ4nY-45" connectable="0" vertex="1">
          <mxGeometry x="-0.1528" relative="1" as="geometry">
            <mxPoint as="offset" />
          </mxGeometry>
        </mxCell>
        <mxCell id="S913CENb46srhOgsQ4nY-46" value="solves" style="endArrow=classic;html=1;rounded=0;exitX=0;exitY=0.5;exitDx=0;exitDy=0;" parent="1" source="S913CENb46srhOgsQ4nY-26" target="mXlHm4GdsC3o7XOTkbqg-9" edge="1">
          <mxGeometry width="50" height="50" relative="1" as="geometry">
            <mxPoint x="440" y="390" as="sourcePoint" />
            <mxPoint x="490" y="340" as="targetPoint" />
          </mxGeometry>
        </mxCell>
        <mxCell id="S913CENb46srhOgsQ4nY-48" value="" style="endArrow=classic;html=1;rounded=0;entryX=1;entryY=0.5;entryDx=0;entryDy=0;edgeStyle=orthogonalEdgeStyle;exitX=1;exitY=0.5;exitDx=0;exitDy=0;" parent="1" source="S913CENb46srhOgsQ4nY-37" target="S913CENb46srhOgsQ4nY-30" edge="1">
          <mxGeometry width="50" height="50" relative="1" as="geometry">
            <mxPoint x="460" y="450" as="sourcePoint" />
            <mxPoint x="490" y="340" as="targetPoint" />
            <Array as="points">
              <mxPoint x="680" y="454" />
              <mxPoint x="680" y="166" />
            </Array>
          </mxGeometry>
        </mxCell>
        <mxCell id="S913CENb46srhOgsQ4nY-60" value="uses" style="edgeLabel;html=1;align=center;verticalAlign=middle;resizable=0;points=[];" parent="S913CENb46srhOgsQ4nY-48" connectable="0" vertex="1">
          <mxGeometry x="-0.664" y="-2" relative="1" as="geometry">
            <mxPoint y="-21" as="offset" />
          </mxGeometry>
        </mxCell>
        <mxCell id="S913CENb46srhOgsQ4nY-54" value="" style="endArrow=classic;html=1;rounded=0;edgeStyle=orthogonalEdgeStyle;exitX=0;exitY=0.75;exitDx=0;exitDy=0;" parent="1" source="S913CENb46srhOgsQ4nY-35" edge="1">
          <mxGeometry width="50" height="50" relative="1" as="geometry">
            <mxPoint x="60" y="480" as="sourcePoint" />
            <mxPoint x="130" y="160" as="targetPoint" />
            <Array as="points">
              <mxPoint x="80" y="466" />
              <mxPoint x="80" y="160" />
            </Array>
          </mxGeometry>
        </mxCell>
        <mxCell id="S913CENb46srhOgsQ4nY-69" value="addresses" style="edgeLabel;html=1;align=center;verticalAlign=middle;resizable=0;points=[];" parent="S913CENb46srhOgsQ4nY-54" connectable="0" vertex="1">
          <mxGeometry x="-0.159" y="-1" relative="1" as="geometry">
            <mxPoint x="-11" y="-10" as="offset" />
          </mxGeometry>
        </mxCell>
      </root>
    </mxGraphModel>
  </diagram>
</mxfile>
